<svg width="201" height="199" viewBox="0 0 201 199" fill="none" xmlns="http://www.w3.org/2000/svg">
<g style="mix-blend-mode:hard-light" filter="url(#filter0_f_1_2107)">
<path d="M98.8389 90.6238H90.1179C85.6848 90.6238 82.0692 94.3712 82.0692 98.9431V108.068C82.0692 112.678 85.6848 116.406 90.1361 116.406H110.34C114.773 116.406 118.406 112.678 118.406 108.106V98.9619C118.406 94.3713 114.773 90.6238 110.321 90.6238H101.637M98.8389 90.6238V102.241L95.9319 99.243C95.3868 98.6809 94.4966 98.6809 93.9515 99.243C93.679 99.5241 93.5518 99.8988 93.5518 100.274C93.5518 100.63 93.679 101.004 93.9515 101.285L99.2386 106.757C99.4929 107.038 99.8563 107.188 100.238 107.188C100.601 107.188 100.965 107.038 101.219 106.757L106.506 101.285C107.051 100.723 107.051 99.8052 106.506 99.243C105.961 98.6809 105.071 98.6809 104.526 99.243L101.637 102.241V90.6238M98.8389 90.6238H101.637M98.8389 90.6238L98.8391 83.3489C98.8391 82.5754 99.4568 81.9308 100.238 81.9308C101.001 81.9308 101.637 82.5754 101.637 83.3489L101.637 90.6238" stroke="#773EE3" stroke-width="4.438"/>
</g>
<g style="mix-blend-mode:hard-light" filter="url(#filter1_f_1_2107)">
<path d="M98.8389 90.6238H90.1179C85.6848 90.6238 82.0692 94.3712 82.0692 98.9431V108.068C82.0692 112.678 85.6848 116.406 90.1361 116.406H110.34C114.773 116.406 118.406 112.678 118.406 108.106V98.9619C118.406 94.3713 114.773 90.6238 110.321 90.6238H101.637M98.8389 90.6238V102.241L95.9319 99.243C95.3868 98.6809 94.4966 98.6809 93.9515 99.243C93.679 99.5241 93.5518 99.8988 93.5518 100.274C93.5518 100.63 93.679 101.004 93.9515 101.285L99.2386 106.757C99.4929 107.038 99.8563 107.188 100.238 107.188C100.601 107.188 100.965 107.038 101.219 106.757L106.506 101.285C107.051 100.723 107.051 99.8052 106.506 99.243C105.961 98.6809 105.071 98.6809 104.526 99.243L101.637 102.241V90.6238M98.8389 90.6238H101.637M98.8389 90.6238L98.8391 83.3489C98.8391 82.5754 99.4568 81.9308 100.238 81.9308C101.001 81.9308 101.637 82.5754 101.637 83.3489L101.637 90.6238" stroke="#7942E3" stroke-width="5.80354"/>
</g>
<g style="mix-blend-mode:hard-light" filter="url(#filter2_ddi_1_2107)">
<path d="M98.8389 90.6238H90.1179C85.6848 90.6238 82.0692 94.3712 82.0692 98.9431V108.068C82.0692 112.678 85.6848 116.406 90.1361 116.406H110.34C114.773 116.406 118.406 112.678 118.406 108.106V98.9619C118.406 94.3713 114.773 90.6238 110.321 90.6238H101.637M98.8389 90.6238V102.241L95.9319 99.243C95.3868 98.6809 94.4966 98.6809 93.9515 99.243C93.679 99.5241 93.5518 99.8988 93.5518 100.274C93.5518 100.63 93.679 101.004 93.9515 101.285L99.2386 106.757C99.4929 107.038 99.8563 107.188 100.238 107.188C100.601 107.188 100.965 107.038 101.219 106.757L106.506 101.285C107.051 100.723 107.051 99.8052 106.506 99.243C105.961 98.6809 105.071 98.6809 104.526 99.243L101.637 102.241V90.6238M98.8389 90.6238H101.637M98.8389 90.6238L98.8391 83.3489C98.8391 82.5754 99.4568 81.9308 100.238 81.9308C101.001 81.9308 101.637 82.5754 101.637 83.3489L101.637 90.6238" stroke="#8350E5" stroke-opacity="0.2" stroke-width="4.438"/>
</g>
<g filter="url(#filter3_f_1_2107)">
<path d="M98.8389 90.6238H90.1179C85.6848 90.6238 82.0692 94.3712 82.0692 98.9431V108.068C82.0692 112.678 85.6848 116.406 90.1361 116.406H110.34C114.773 116.406 118.406 112.678 118.406 108.106V98.9619C118.406 94.3713 114.773 90.6238 110.321 90.6238H101.637M98.8389 90.6238V102.241L95.9319 99.243C95.3868 98.6809 94.4966 98.6809 93.9515 99.243C93.679 99.5241 93.5518 99.8988 93.5518 100.274C93.5518 100.63 93.679 101.004 93.9515 101.285L99.2386 106.757C99.4929 107.038 99.8563 107.188 100.238 107.188C100.601 107.188 100.965 107.038 101.219 106.757L106.506 101.285C107.051 100.723 107.051 99.8052 106.506 99.243C105.961 98.6809 105.071 98.6809 104.526 99.243L101.637 102.241V90.6238M98.8389 90.6238H101.637M98.8389 90.6238L98.8391 83.3489C98.8391 82.5754 99.4568 81.9308 100.238 81.9308C101.001 81.9308 101.637 82.5754 101.637 83.3489L101.637 90.6238" stroke="#8350E5" stroke-width="2.73108"/>
</g>
<g filter="url(#filter4_f_1_2107)">
<path d="M98.8389 90.6238H90.1179C85.6848 90.6238 82.0692 94.3712 82.0692 98.9431V108.068C82.0692 112.678 85.6848 116.406 90.1361 116.406H110.34C114.773 116.406 118.406 112.678 118.406 108.106V98.9619C118.406 94.3713 114.773 90.6238 110.321 90.6238H101.637M98.8389 90.6238V102.241L95.9319 99.243C95.3868 98.6809 94.4966 98.6809 93.9515 99.243C93.679 99.5241 93.5518 99.8988 93.5518 100.274C93.5518 100.63 93.679 101.004 93.9515 101.285L99.2386 106.757C99.4929 107.038 99.8563 107.188 100.238 107.188C100.601 107.188 100.965 107.038 101.219 106.757L106.506 101.285C107.051 100.723 107.051 99.8052 106.506 99.243C105.961 98.6809 105.071 98.6809 104.526 99.243L101.637 102.241V90.6238M98.8389 90.6238H101.637M98.8389 90.6238L98.8391 83.3489C98.8391 82.5754 99.4568 81.9308 100.238 81.9308C101.001 81.9308 101.637 82.5754 101.637 83.3489L101.637 90.6238" stroke="white" stroke-width="1.36554"/>
</g>
<g filter="url(#filter5_b_1_2107)">
<path d="M118.406 98.9556V108.096C118.406 112.666 114.778 116.393 110.351 116.393H90.1757C85.7307 116.393 82.1202 112.666 82.1202 108.058V98.9368C82.1202 94.3666 85.7307 90.6205 90.1576 90.6205H98.8663V102.233L95.9634 99.2366C95.4191 98.6747 94.5301 98.6747 93.9858 99.2366C93.7136 99.5175 93.5867 99.892 93.5867 100.267C93.5867 100.622 93.7136 100.997 93.9858 101.278L99.2655 106.747C99.5195 107.028 99.8823 107.178 100.263 107.178C100.626 107.178 100.989 107.028 101.243 106.747L106.523 101.278C107.067 100.716 107.067 99.7985 106.523 99.2366C105.978 98.6747 105.089 98.6747 104.545 99.2366L101.66 102.233V90.6205H110.333C114.778 90.6205 118.406 94.3666 118.406 98.9556Z" fill="#5B1ED0" fill-opacity="0.01"/>
<path d="M100.264 81.9308C101.026 81.9308 101.661 82.5751 101.661 83.3483L101.66 90.6205H98.8663L98.8665 83.3483C98.8665 82.5751 99.4833 81.9308 100.264 81.9308Z" fill="#5B1ED0" fill-opacity="0.01"/>
</g>
<defs>
<filter id="filter0_f_1_2107" x="0.256424" y="0.117996" width="199.963" height="198.101" filterUnits="userSpaceOnUse" color-interpolation-filters="sRGB">
<feFlood flood-opacity="0" result="BackgroundImageFix"/>
<feBlend mode="normal" in="SourceGraphic" in2="BackgroundImageFix" result="shape"/>
<feGaussianBlur stdDeviation="39.7969" result="effect1_foregroundBlur_1_2107"/>
</filter>
<filter id="filter1_f_1_2107" x="52.6362" y="52.4977" width="95.2033" height="93.3417" filterUnits="userSpaceOnUse" color-interpolation-filters="sRGB">
<feFlood flood-opacity="0" result="BackgroundImageFix"/>
<feBlend mode="normal" in="SourceGraphic" in2="BackgroundImageFix" result="shape"/>
<feGaussianBlur stdDeviation="13.2656" result="effect1_foregroundBlur_1_2107"/>
</filter>
<filter id="filter2_ddi_1_2107" x="45.3596" y="71.7524" width="109.757" height="107.895" filterUnits="userSpaceOnUse" color-interpolation-filters="sRGB">
<feFlood flood-opacity="0" result="BackgroundImageFix"/>
<feColorMatrix in="SourceAlpha" type="matrix" values="0 0 0 0 0 0 0 0 0 0 0 0 0 0 0 0 0 0 127 0" result="hardAlpha"/>
<feOffset dy="17.2453"/>
<feGaussianBlur stdDeviation="6.63282"/>
<feColorMatrix type="matrix" values="0 0 0 0 0.114706 0 0 0 0 0.0382353 0 0 0 0 0.261765 0 0 0 0.7 0"/>
<feBlend mode="multiply" in2="BackgroundImageFix" result="effect1_dropShadow_1_2107"/>
<feColorMatrix in="SourceAlpha" type="matrix" values="0 0 0 0 0 0 0 0 0 0 0 0 0 0 0 0 0 0 127 0" result="hardAlpha"/>
<feOffset dy="26.5313"/>
<feGaussianBlur stdDeviation="17.2453"/>
<feColorMatrix type="matrix" values="0 0 0 0 0.229412 0 0 0 0 0.0764706 0 0 0 0 0.523529 0 0 0 1 0"/>
<feBlend mode="color-dodge" in2="effect1_dropShadow_1_2107" result="effect2_dropShadow_1_2107"/>
<feBlend mode="normal" in="SourceGraphic" in2="effect2_dropShadow_1_2107" result="shape"/>
<feColorMatrix in="SourceAlpha" type="matrix" values="0 0 0 0 0 0 0 0 0 0 0 0 0 0 0 0 0 0 127 0" result="hardAlpha"/>
<feOffset dx="-1.72453" dy="3.44906"/>
<feGaussianBlur stdDeviation="0.862266"/>
<feComposite in2="hardAlpha" operator="arithmetic" k2="-1" k3="1"/>
<feColorMatrix type="matrix" values="0 0 0 0 1 0 0 0 0 1 0 0 0 0 1 0 0 0 0.5 0"/>
<feBlend mode="normal" in2="shape" result="effect3_innerShadow_1_2107"/>
</filter>
<filter id="filter3_f_1_2107" x="80.021" y="79.8825" width="40.4338" height="38.5722" filterUnits="userSpaceOnUse" color-interpolation-filters="sRGB">
<feFlood flood-opacity="0" result="BackgroundImageFix"/>
<feBlend mode="normal" in="SourceGraphic" in2="BackgroundImageFix" result="shape"/>
<feGaussianBlur stdDeviation="0.341384" result="effect1_foregroundBlur_1_2107"/>
</filter>
<filter id="filter4_f_1_2107" x="80.9313" y="80.7929" width="38.6131" height="36.7514" filterUnits="userSpaceOnUse" color-interpolation-filters="sRGB">
<feFlood flood-opacity="0" result="BackgroundImageFix"/>
<feBlend mode="normal" in="SourceGraphic" in2="BackgroundImageFix" result="shape"/>
<feGaussianBlur stdDeviation="0.22759" result="effect1_foregroundBlur_1_2107"/>
</filter>
<filter id="filter5_b_1_2107" x="66.1201" y="65.9308" width="68.2864" height="66.4626" filterUnits="userSpaceOnUse" color-interpolation-filters="sRGB">
<feFlood flood-opacity="0" result="BackgroundImageFix"/>
<feGaussianBlur in="BackgroundImageFix" stdDeviation="8"/>
<feComposite in2="SourceAlpha" operator="in" result="effect1_backgroundBlur_1_2107"/>
<feBlend mode="normal" in="SourceGraphic" in2="effect1_backgroundBlur_1_2107" result="shape"/>
</filter>
</defs>
</svg>
