<svg width="197" height="201" viewBox="0 0 197 201" fill="none" xmlns="http://www.w3.org/2000/svg">
<g style="mix-blend-mode:hard-light" filter="url(#filter0_f_1_1963)">
<path fill-rule="evenodd" clip-rule="evenodd" d="M107.277 91.0843C107.334 90.9555 107.361 90.8152 107.356 90.6743H107.403C107.2 85.8261 103.202 82 98.3395 82C93.4767 82 89.4789 85.8261 89.276 90.6743C89.2521 90.8099 89.2521 90.9487 89.276 91.0843H89.1341C86.8088 91.0843 84.3232 92.6213 83.6015 96.7531L82.1904 108.008C81.0357 116.271 85.2854 118.337 90.834 118.337H105.876C111.409 118.337 115.53 115.346 114.504 108.008L113.109 96.7531C112.259 92.737 109.853 91.0843 107.56 91.0843H107.277ZM104.669 91.0843C104.618 90.9534 104.592 90.8146 104.59 90.6743C104.59 87.1905 101.76 84.3662 98.2684 84.3662C94.7771 84.3662 91.9468 87.1905 91.9468 90.6743C91.9707 90.8099 91.9707 90.9487 91.9468 91.0843H104.669ZM93.063 100.439C92.1774 100.439 91.4594 99.6986 91.4594 98.7859C91.4594 97.8731 92.1774 97.1332 93.063 97.1332C93.9487 97.1332 94.6667 97.8731 94.6667 98.7859C94.6667 99.6986 93.9487 100.439 93.063 100.439ZM101.963 98.7859C101.963 99.6986 102.681 100.439 103.567 100.439C104.453 100.439 105.171 99.6986 105.171 98.7859C105.171 97.8731 104.453 97.1332 103.567 97.1332C102.681 97.1332 101.963 97.8731 101.963 98.7859Z" stroke="#773EE3" stroke-width="4.438"/>
</g>
<g style="mix-blend-mode:hard-light" filter="url(#filter1_f_1_1963)">
<path fill-rule="evenodd" clip-rule="evenodd" d="M107.277 91.0843C107.334 90.9555 107.361 90.8152 107.356 90.6743H107.403C107.2 85.8261 103.202 82 98.3395 82C93.4767 82 89.4789 85.8261 89.276 90.6743C89.2521 90.8099 89.2521 90.9487 89.276 91.0843H89.1341C86.8088 91.0843 84.3232 92.6213 83.6015 96.7531L82.1904 108.008C81.0357 116.271 85.2854 118.337 90.834 118.337H105.876C111.409 118.337 115.53 115.346 114.504 108.008L113.109 96.7531C112.259 92.737 109.853 91.0843 107.56 91.0843H107.277ZM104.669 91.0843C104.618 90.9534 104.592 90.8146 104.59 90.6743C104.59 87.1905 101.76 84.3662 98.2684 84.3662C94.7771 84.3662 91.9468 87.1905 91.9468 90.6743C91.9707 90.8099 91.9707 90.9487 91.9468 91.0843H104.669ZM93.063 100.439C92.1774 100.439 91.4594 99.6986 91.4594 98.7859C91.4594 97.8731 92.1774 97.1332 93.063 97.1332C93.9487 97.1332 94.6667 97.8731 94.6667 98.7859C94.6667 99.6986 93.9487 100.439 93.063 100.439ZM101.963 98.7859C101.963 99.6986 102.681 100.439 103.567 100.439C104.453 100.439 105.171 99.6986 105.171 98.7859C105.171 97.8731 104.453 97.1332 103.567 97.1332C102.681 97.1332 101.963 97.8731 101.963 98.7859Z" stroke="#7942E3" stroke-width="5.80354"/>
</g>
<g style="mix-blend-mode:hard-light" filter="url(#filter2_ddi_1_1963)">
<path fill-rule="evenodd" clip-rule="evenodd" d="M107.277 91.0843C107.334 90.9555 107.361 90.8152 107.356 90.6743H107.403C107.2 85.8261 103.202 82 98.3395 82C93.4767 82 89.4789 85.8261 89.276 90.6743C89.2521 90.8099 89.2521 90.9487 89.276 91.0843H89.1341C86.8088 91.0843 84.3232 92.6213 83.6015 96.7531L82.1904 108.008C81.0357 116.271 85.2854 118.337 90.834 118.337H105.876C111.409 118.337 115.53 115.346 114.504 108.008L113.109 96.7531C112.259 92.737 109.853 91.0843 107.56 91.0843H107.277ZM104.669 91.0843C104.618 90.9534 104.592 90.8146 104.59 90.6743C104.59 87.1905 101.76 84.3662 98.2684 84.3662C94.7771 84.3662 91.9468 87.1905 91.9468 90.6743C91.9707 90.8099 91.9707 90.9487 91.9468 91.0843H104.669ZM93.063 100.439C92.1774 100.439 91.4594 99.6986 91.4594 98.7859C91.4594 97.8731 92.1774 97.1332 93.063 97.1332C93.9487 97.1332 94.6667 97.8731 94.6667 98.7859C94.6667 99.6986 93.9487 100.439 93.063 100.439ZM101.963 98.7859C101.963 99.6986 102.681 100.439 103.567 100.439C104.453 100.439 105.171 99.6986 105.171 98.7859C105.171 97.8731 104.453 97.1332 103.567 97.1332C102.681 97.1332 101.963 97.8731 101.963 98.7859Z" stroke="#8350E5" stroke-opacity="0.2" stroke-width="4.438"/>
</g>
<g filter="url(#filter3_f_1_1963)">
<path fill-rule="evenodd" clip-rule="evenodd" d="M107.277 91.0843C107.334 90.9555 107.361 90.8152 107.356 90.6743H107.403C107.2 85.8261 103.202 82 98.3395 82C93.4767 82 89.4789 85.8261 89.276 90.6743C89.2521 90.8099 89.2521 90.9487 89.276 91.0843H89.1341C86.8088 91.0843 84.3232 92.6213 83.6015 96.7531L82.1904 108.008C81.0357 116.271 85.2854 118.337 90.834 118.337H105.876C111.409 118.337 115.53 115.346 114.504 108.008L113.109 96.7531C112.259 92.737 109.853 91.0843 107.56 91.0843H107.277ZM104.669 91.0843C104.618 90.9534 104.592 90.8146 104.59 90.6743C104.59 87.1905 101.76 84.3662 98.2684 84.3662C94.7771 84.3662 91.9468 87.1905 91.9468 90.6743C91.9707 90.8099 91.9707 90.9487 91.9468 91.0843H104.669ZM93.063 100.439C92.1774 100.439 91.4594 99.6986 91.4594 98.7859C91.4594 97.8731 92.1774 97.1332 93.063 97.1332C93.9487 97.1332 94.6667 97.8731 94.6667 98.7859C94.6667 99.6986 93.9487 100.439 93.063 100.439ZM101.963 98.7859C101.963 99.6986 102.681 100.439 103.567 100.439C104.453 100.439 105.171 99.6986 105.171 98.7859C105.171 97.8731 104.453 97.1332 103.567 97.1332C102.681 97.1332 101.963 97.8731 101.963 98.7859Z" stroke="#8350E5" stroke-width="2.73108"/>
</g>
<g filter="url(#filter4_f_1_1963)">
<path fill-rule="evenodd" clip-rule="evenodd" d="M107.277 91.0843C107.334 90.9555 107.361 90.8152 107.356 90.6743H107.403C107.2 85.8261 103.202 82 98.3395 82C93.4767 82 89.4789 85.8261 89.276 90.6743C89.2521 90.8099 89.2521 90.9487 89.276 91.0843H89.1341C86.8088 91.0843 84.3232 92.6213 83.6015 96.7531L82.1904 108.008C81.0357 116.271 85.2854 118.337 90.834 118.337H105.876C111.409 118.337 115.53 115.346 114.504 108.008L113.109 96.7531C112.259 92.737 109.853 91.0843 107.56 91.0843H107.277ZM104.669 91.0843C104.618 90.9534 104.592 90.8146 104.59 90.6743C104.59 87.1905 101.76 84.3662 98.2684 84.3662C94.7771 84.3662 91.9468 87.1905 91.9468 90.6743C91.9707 90.8099 91.9707 90.9487 91.9468 91.0843H104.669ZM93.063 100.439C92.1774 100.439 91.4594 99.6986 91.4594 98.7859C91.4594 97.8731 92.1774 97.1332 93.063 97.1332C93.9487 97.1332 94.6667 97.8731 94.6667 98.7859C94.6667 99.6986 93.9487 100.439 93.063 100.439ZM101.963 98.7859C101.963 99.6986 102.681 100.439 103.567 100.439C104.453 100.439 105.171 99.6986 105.171 98.7859C105.171 97.8731 104.453 97.1332 103.567 97.1332C102.681 97.1332 101.963 97.8731 101.963 98.7859Z" stroke="white" stroke-width="1.36554"/>
</g>
<g filter="url(#filter5_b_1_1963)">
<path fill-rule="evenodd" clip-rule="evenodd" d="M107.267 91.0716C107.325 90.943 107.352 90.8029 107.346 90.6621H107.394C107.191 85.8208 103.194 82 98.3333 82C93.4724 82 89.4761 85.8208 89.2732 90.6621C89.2493 90.7976 89.2493 90.9361 89.2732 91.0716H89.1314C86.807 91.0716 84.3223 92.6064 83.6009 96.7324L82.1903 107.971C81.0361 116.223 85.2841 118.286 90.8307 118.286H105.867C111.398 118.286 115.517 115.299 114.491 107.971L113.097 96.7324C112.247 92.7219 109.843 91.0716 107.55 91.0716H107.267ZM104.66 91.0716C104.61 90.9408 104.583 90.8022 104.581 90.6621C104.581 87.1832 101.752 84.3629 98.2623 84.3629C94.7723 84.3629 91.9431 87.1832 91.9431 90.6621C91.967 90.7976 91.967 90.9361 91.9431 91.0716H104.66ZM93.0589 100.413C92.1735 100.413 91.4558 99.6738 91.4558 98.7623C91.4558 97.8509 92.1735 97.112 93.0589 97.112C93.9442 97.112 94.6619 97.8509 94.6619 98.7623C94.6619 99.6738 93.9442 100.413 93.0589 100.413ZM101.956 98.7623C101.956 99.6738 102.673 100.413 103.559 100.413C104.444 100.413 105.162 99.6738 105.162 98.7623C105.162 97.8509 104.444 97.112 103.559 97.112C102.673 97.112 101.956 97.8509 101.956 98.7623Z" fill="#5B1ED0" fill-opacity="0.01"/>
</g>
<defs>
<filter id="filter0_f_1_1963" x="0.188553" y="0.18721" width="196.284" height="199.963" filterUnits="userSpaceOnUse" color-interpolation-filters="sRGB">
<feFlood flood-opacity="0" result="BackgroundImageFix"/>
<feBlend mode="normal" in="SourceGraphic" in2="BackgroundImageFix" result="shape"/>
<feGaussianBlur stdDeviation="39.7969" result="effect1_foregroundBlur_1_1963"/>
</filter>
<filter id="filter1_f_1_1963" x="52.5687" y="52.567" width="91.5242" height="95.2033" filterUnits="userSpaceOnUse" color-interpolation-filters="sRGB">
<feFlood flood-opacity="0" result="BackgroundImageFix"/>
<feBlend mode="normal" in="SourceGraphic" in2="BackgroundImageFix" result="shape"/>
<feGaussianBlur stdDeviation="13.2656" result="effect1_foregroundBlur_1_1963"/>
</filter>
<filter id="filter2_ddi_1_1963" x="45.2917" y="71.8216" width="106.078" height="109.757" filterUnits="userSpaceOnUse" color-interpolation-filters="sRGB">
<feFlood flood-opacity="0" result="BackgroundImageFix"/>
<feColorMatrix in="SourceAlpha" type="matrix" values="0 0 0 0 0 0 0 0 0 0 0 0 0 0 0 0 0 0 127 0" result="hardAlpha"/>
<feOffset dy="17.2453"/>
<feGaussianBlur stdDeviation="6.63282"/>
<feColorMatrix type="matrix" values="0 0 0 0 0.114706 0 0 0 0 0.0382353 0 0 0 0 0.261765 0 0 0 0.7 0"/>
<feBlend mode="multiply" in2="BackgroundImageFix" result="effect1_dropShadow_1_1963"/>
<feColorMatrix in="SourceAlpha" type="matrix" values="0 0 0 0 0 0 0 0 0 0 0 0 0 0 0 0 0 0 127 0" result="hardAlpha"/>
<feOffset dy="26.5313"/>
<feGaussianBlur stdDeviation="17.2453"/>
<feColorMatrix type="matrix" values="0 0 0 0 0.229412 0 0 0 0 0.0764706 0 0 0 0 0.523529 0 0 0 1 0"/>
<feBlend mode="color-dodge" in2="effect1_dropShadow_1_1963" result="effect2_dropShadow_1_1963"/>
<feBlend mode="normal" in="SourceGraphic" in2="effect2_dropShadow_1_1963" result="shape"/>
<feColorMatrix in="SourceAlpha" type="matrix" values="0 0 0 0 0 0 0 0 0 0 0 0 0 0 0 0 0 0 127 0" result="hardAlpha"/>
<feOffset dx="-1.72453" dy="3.44906"/>
<feGaussianBlur stdDeviation="0.862266"/>
<feComposite in2="hardAlpha" operator="arithmetic" k2="-1" k3="1"/>
<feColorMatrix type="matrix" values="0 0 0 0 1 0 0 0 0 1 0 0 0 0 1 0 0 0 0.5 0"/>
<feBlend mode="normal" in2="shape" result="effect3_innerShadow_1_1963"/>
</filter>
<filter id="filter3_f_1_1963" x="79.9525" y="79.9518" width="36.7564" height="40.4338" filterUnits="userSpaceOnUse" color-interpolation-filters="sRGB">
<feFlood flood-opacity="0" result="BackgroundImageFix"/>
<feBlend mode="normal" in="SourceGraphic" in2="BackgroundImageFix" result="shape"/>
<feGaussianBlur stdDeviation="0.341384" result="effect1_foregroundBlur_1_1963"/>
</filter>
<filter id="filter4_f_1_1963" x="80.8624" y="80.8621" width="34.9364" height="38.6131" filterUnits="userSpaceOnUse" color-interpolation-filters="sRGB">
<feFlood flood-opacity="0" result="BackgroundImageFix"/>
<feBlend mode="normal" in="SourceGraphic" in2="BackgroundImageFix" result="shape"/>
<feGaussianBlur stdDeviation="0.22759" result="effect1_foregroundBlur_1_1963"/>
</filter>
<filter id="filter5_b_1_1963" x="66" y="66" width="64.6488" height="68.2864" filterUnits="userSpaceOnUse" color-interpolation-filters="sRGB">
<feFlood flood-opacity="0" result="BackgroundImageFix"/>
<feGaussianBlur in="BackgroundImageFix" stdDeviation="8"/>
<feComposite in2="SourceAlpha" operator="in" result="effect1_backgroundBlur_1_1963"/>
<feBlend mode="normal" in="SourceGraphic" in2="effect1_backgroundBlur_1_1963" result="shape"/>
</filter>
</defs>
</svg>
