<svg width="24" height="24" viewBox="0 0 24 24" fill="none" xmlns="http://www.w3.org/2000/svg">
<g style="mix-blend-mode:hard-light" filter="url(#filter0_f_1_1803)">
<path fill-rule="evenodd" clip-rule="evenodd" d="M110.613 91.778H118.29C118.29 85.6057 114.597 82 108.339 82H91.9516C85.6935 82 82 85.6057 82 91.6993V105.004C82 111.098 85.6935 114.704 91.9516 114.704H108.339C114.597 114.704 118.29 111.098 118.29 105.004V104.437H110.613C107.05 104.437 104.161 101.618 104.161 98.1392C104.161 94.6608 107.05 91.841 110.613 91.841V91.778ZM110.613 94.4862H116.935C117.684 94.4862 118.29 95.0784 118.29 95.8089V100.407C118.281 101.133 117.68 101.721 116.935 101.729H110.758C108.954 101.753 107.377 100.547 106.968 98.832C106.763 97.7673 107.05 96.6686 107.753 95.8304C108.456 94.9922 109.503 94.5002 110.613 94.4862ZM110.887 99.3201H111.484C112.25 99.3201 112.871 98.7139 112.871 97.966C112.871 97.2181 112.25 96.6119 111.484 96.6119H110.887C110.521 96.6077 110.168 96.7468 109.907 96.9983C109.646 97.2497 109.5 97.5926 109.5 97.9503C109.5 98.7007 110.118 99.3115 110.887 99.3201ZM90.5967 91.778H100.839C101.605 91.778 102.226 91.1717 102.226 90.4239C102.226 89.676 101.605 89.0698 100.839 89.0698H90.5967C89.8369 89.0697 89.2185 89.6664 89.2096 90.4081C89.2096 91.1586 89.8281 91.7694 90.5967 91.778Z" stroke="#773EE3" stroke-width="4.438"/>
</g>
<g style="mix-blend-mode:hard-light" filter="url(#filter1_f_1_1803)">
<path fill-rule="evenodd" clip-rule="evenodd" d="M110.613 91.778H118.29C118.29 85.6057 114.597 82 108.339 82H91.9516C85.6935 82 82 85.6057 82 91.6993V105.004C82 111.098 85.6935 114.704 91.9516 114.704H108.339C114.597 114.704 118.29 111.098 118.29 105.004V104.437H110.613C107.05 104.437 104.161 101.618 104.161 98.1392C104.161 94.6608 107.05 91.841 110.613 91.841V91.778ZM110.613 94.4862H116.935C117.684 94.4862 118.29 95.0784 118.29 95.8089V100.407C118.281 101.133 117.68 101.721 116.935 101.729H110.758C108.954 101.753 107.377 100.547 106.968 98.832C106.763 97.7673 107.05 96.6686 107.753 95.8304C108.456 94.9922 109.503 94.5002 110.613 94.4862ZM110.887 99.3201H111.484C112.25 99.3201 112.871 98.7139 112.871 97.966C112.871 97.2181 112.25 96.6119 111.484 96.6119H110.887C110.521 96.6077 110.168 96.7468 109.907 96.9983C109.646 97.2497 109.5 97.5926 109.5 97.9503C109.5 98.7007 110.118 99.3115 110.887 99.3201ZM90.5967 91.778H100.839C101.605 91.778 102.226 91.1717 102.226 90.4239C102.226 89.676 101.605 89.0698 100.839 89.0698H90.5967C89.8369 89.0697 89.2185 89.6664 89.2096 90.4081C89.2096 91.1586 89.8281 91.7694 90.5967 91.778Z" stroke="#7942E3" stroke-width="5.80354"/>
</g>
<g filter="url(#filter2_f_1_1803)">
<path fill-rule="evenodd" clip-rule="evenodd" d="M110.613 91.778H118.29C118.29 85.6057 114.597 82 108.339 82H91.9516C85.6935 82 82 85.6057 82 91.6993V105.004C82 111.098 85.6935 114.704 91.9516 114.704H108.339C114.597 114.704 118.29 111.098 118.29 105.004V104.437H110.613C107.05 104.437 104.161 101.618 104.161 98.1392C104.161 94.6608 107.05 91.841 110.613 91.841V91.778ZM110.613 94.4862H116.935C117.684 94.4862 118.29 95.0784 118.29 95.8089V100.407C118.281 101.133 117.68 101.721 116.935 101.729H110.758C108.954 101.753 107.377 100.547 106.968 98.832C106.763 97.7673 107.05 96.6686 107.753 95.8304C108.456 94.9922 109.503 94.5002 110.613 94.4862ZM110.887 99.3201H111.484C112.25 99.3201 112.871 98.7139 112.871 97.966C112.871 97.2181 112.25 96.6119 111.484 96.6119H110.887C110.521 96.6077 110.168 96.7468 109.907 96.9983C109.646 97.2497 109.5 97.5926 109.5 97.9503C109.5 98.7007 110.118 99.3115 110.887 99.3201ZM90.5967 91.778H100.839C101.605 91.778 102.226 91.1717 102.226 90.4239C102.226 89.676 101.605 89.0698 100.839 89.0698H90.5967C89.8369 89.0697 89.2185 89.6664 89.2096 90.4081C89.2096 91.1586 89.8281 91.7694 90.5967 91.778Z" stroke="#8350E5" stroke-width="2.73108"/>
</g>
<g style="mix-blend-mode:hard-light" filter="url(#filter3_ddi_1_1803)">
<path fill-rule="evenodd" clip-rule="evenodd" d="M110.613 91.778H118.29C118.29 85.6057 114.597 82 108.339 82H91.9516C85.6935 82 82 85.6057 82 91.6993V105.004C82 111.098 85.6935 114.704 91.9516 114.704H108.339C114.597 114.704 118.29 111.098 118.29 105.004V104.437H110.613C107.05 104.437 104.161 101.618 104.161 98.1392C104.161 94.6608 107.05 91.841 110.613 91.841V91.778ZM110.613 94.4862H116.935C117.684 94.4862 118.29 95.0784 118.29 95.8089V100.407C118.281 101.133 117.68 101.721 116.935 101.729H110.758C108.954 101.753 107.377 100.547 106.968 98.832C106.763 97.7673 107.05 96.6686 107.753 95.8304C108.456 94.9922 109.503 94.5002 110.613 94.4862ZM110.887 99.3201H111.484C112.25 99.3201 112.871 98.7139 112.871 97.966C112.871 97.2181 112.25 96.6119 111.484 96.6119H110.887C110.521 96.6077 110.168 96.7468 109.907 96.9983C109.646 97.2497 109.5 97.5926 109.5 97.9503C109.5 98.7007 110.118 99.3115 110.887 99.3201ZM90.5967 91.778H100.839C101.605 91.778 102.226 91.1717 102.226 90.4239C102.226 89.676 101.605 89.0698 100.839 89.0698H90.5967C89.8369 89.0697 89.2185 89.6664 89.2096 90.4081C89.2096 91.1586 89.8281 91.7694 90.5967 91.778Z" stroke="#8350E5" stroke-opacity="0.2" stroke-width="4.438"/>
</g>
<g filter="url(#filter4_f_1_1803)">
<path fill-rule="evenodd" clip-rule="evenodd" d="M110.613 91.778H118.29C118.29 85.6057 114.597 82 108.339 82H91.9516C85.6935 82 82 85.6057 82 91.6993V105.004C82 111.098 85.6935 114.704 91.9516 114.704H108.339C114.597 114.704 118.29 111.098 118.29 105.004V104.437H110.613C107.05 104.437 104.161 101.618 104.161 98.1392C104.161 94.6608 107.05 91.841 110.613 91.841V91.778ZM110.613 94.4862H116.935C117.684 94.4862 118.29 95.0784 118.29 95.8089V100.407C118.281 101.133 117.68 101.721 116.935 101.729H110.758C108.954 101.753 107.377 100.547 106.968 98.832C106.763 97.7673 107.05 96.6686 107.753 95.8304C108.456 94.9922 109.503 94.5002 110.613 94.4862ZM110.887 99.3201H111.484C112.25 99.3201 112.871 98.7139 112.871 97.966C112.871 97.2181 112.25 96.6119 111.484 96.6119H110.887C110.521 96.6077 110.168 96.7468 109.907 96.9983C109.646 97.2497 109.5 97.5926 109.5 97.9503C109.5 98.7007 110.118 99.3115 110.887 99.3201ZM90.5967 91.778H100.839C101.605 91.778 102.226 91.1717 102.226 90.4239C102.226 89.676 101.605 89.0698 100.839 89.0698H90.5967C89.8369 89.0697 89.2185 89.6664 89.2096 90.4081C89.2096 91.1586 89.8281 91.7694 90.5967 91.778Z" stroke="white" stroke-width="1.36554"/>
</g>
<g filter="url(#filter5_b_1_1803)">
<path fill-rule="evenodd" clip-rule="evenodd" d="M110.602 91.7643H118.276C118.276 85.6007 114.584 82 108.329 82H91.9478C85.6921 82 82 85.6007 82 91.6857V104.972C82 111.057 85.6921 114.658 91.9478 114.658H108.329C114.584 114.658 118.276 111.057 118.276 104.972V104.406H110.602C107.04 104.406 104.153 101.59 104.153 98.1166C104.153 94.643 107.04 91.8272 110.602 91.8272V91.7643ZM110.602 94.4687H116.922C117.67 94.4687 118.276 95.0601 118.276 95.7895V100.381C118.268 101.107 117.666 101.693 116.922 101.702H110.747C108.944 101.725 107.367 100.521 106.958 98.8084C106.753 97.7452 107.041 96.648 107.744 95.811C108.447 94.9739 109.493 94.4826 110.602 94.4687ZM110.876 99.2958H111.473C112.238 99.2958 112.859 98.6904 112.859 97.9436C112.859 97.1968 112.238 96.5914 111.473 96.5914H110.876C110.51 96.5872 110.157 96.7261 109.897 96.9772C109.636 97.2283 109.489 97.5707 109.49 97.9279C109.489 98.6773 110.108 99.2872 110.876 99.2958ZM90.5935 91.7643H100.832C101.597 91.7643 102.218 91.1589 102.218 90.4121C102.218 89.6653 101.597 89.0598 100.832 89.0598H90.5935C89.834 89.0598 89.2158 89.6557 89.2069 90.3963C89.2069 91.1457 89.8251 91.7557 90.5935 91.7643Z" fill="#5B1ED0" fill-opacity="0.01"/>
</g>
<defs>
<filter id="filter0_f_1_1803" x="0.18721" y="0.18721" width="199.916" height="196.329" filterUnits="userSpaceOnUse" color-interpolation-filters="sRGB">
<feFlood flood-opacity="0" result="BackgroundImageFix"/>
<feBlend mode="normal" in="SourceGraphic" in2="BackgroundImageFix" result="shape"/>
<feGaussianBlur stdDeviation="39.7969" result="effect1_foregroundBlur_1_1803"/>
</filter>
<filter id="filter1_f_1_1803" x="52.567" y="52.567" width="95.1562" height="91.5696" filterUnits="userSpaceOnUse" color-interpolation-filters="sRGB">
<feFlood flood-opacity="0" result="BackgroundImageFix"/>
<feBlend mode="normal" in="SourceGraphic" in2="BackgroundImageFix" result="shape"/>
<feGaussianBlur stdDeviation="13.2656" result="effect1_foregroundBlur_1_1803"/>
</filter>
<filter id="filter2_f_1_1803" x="79.9518" y="79.9518" width="40.3867" height="36.8001" filterUnits="userSpaceOnUse" color-interpolation-filters="sRGB">
<feFlood flood-opacity="0" result="BackgroundImageFix"/>
<feBlend mode="normal" in="SourceGraphic" in2="BackgroundImageFix" result="shape"/>
<feGaussianBlur stdDeviation="0.341384" result="effect1_foregroundBlur_1_1803"/>
</filter>
<filter id="filter3_ddi_1_1803" x="45.2904" y="71.8216" width="109.709" height="106.123" filterUnits="userSpaceOnUse" color-interpolation-filters="sRGB">
<feFlood flood-opacity="0" result="BackgroundImageFix"/>
<feColorMatrix in="SourceAlpha" type="matrix" values="0 0 0 0 0 0 0 0 0 0 0 0 0 0 0 0 0 0 127 0" result="hardAlpha"/>
<feOffset dy="17.2453"/>
<feGaussianBlur stdDeviation="6.63282"/>
<feColorMatrix type="matrix" values="0 0 0 0 0.114706 0 0 0 0 0.0382353 0 0 0 0 0.261765 0 0 0 0.7 0"/>
<feBlend mode="multiply" in2="BackgroundImageFix" result="effect1_dropShadow_1_1803"/>
<feColorMatrix in="SourceAlpha" type="matrix" values="0 0 0 0 0 0 0 0 0 0 0 0 0 0 0 0 0 0 127 0" result="hardAlpha"/>
<feOffset dy="26.5313"/>
<feGaussianBlur stdDeviation="17.2453"/>
<feColorMatrix type="matrix" values="0 0 0 0 0.229412 0 0 0 0 0.0764706 0 0 0 0 0.523529 0 0 0 1 0"/>
<feBlend mode="color-dodge" in2="effect1_dropShadow_1_1803" result="effect2_dropShadow_1_1803"/>
<feBlend mode="normal" in="SourceGraphic" in2="effect2_dropShadow_1_1803" result="shape"/>
<feColorMatrix in="SourceAlpha" type="matrix" values="0 0 0 0 0 0 0 0 0 0 0 0 0 0 0 0 0 0 127 0" result="hardAlpha"/>
<feOffset dx="-1.72453" dy="3.44906"/>
<feGaussianBlur stdDeviation="0.862266"/>
<feComposite in2="hardAlpha" operator="arithmetic" k2="-1" k3="1"/>
<feColorMatrix type="matrix" values="0 0 0 0 1 0 0 0 0 1 0 0 0 0 1 0 0 0 0.5 0"/>
<feBlend mode="normal" in2="shape" result="effect3_innerShadow_1_1803"/>
</filter>
<filter id="filter4_f_1_1803" x="80.8621" y="80.8621" width="38.566" height="34.9795" filterUnits="userSpaceOnUse" color-interpolation-filters="sRGB">
<feFlood flood-opacity="0" result="BackgroundImageFix"/>
<feBlend mode="normal" in="SourceGraphic" in2="BackgroundImageFix" result="shape"/>
<feGaussianBlur stdDeviation="0.22759" result="effect1_foregroundBlur_1_1803"/>
</filter>
<filter id="filter5_b_1_1803" x="66" y="66" width="68.2765" height="64.6577" filterUnits="userSpaceOnUse" color-interpolation-filters="sRGB">
<feFlood flood-opacity="0" result="BackgroundImageFix"/>
<feGaussianBlur in="BackgroundImageFix" stdDeviation="8"/>
<feComposite in2="SourceAlpha" operator="in" result="effect1_backgroundBlur_1_1803"/>
<feBlend mode="normal" in="SourceGraphic" in2="effect1_backgroundBlur_1_1803" result="shape"/>
</filter>
</defs>
</svg>
